<svg id="Layer_1" data-name="Layer 1" xmlns="http://www.w3.org/2000/svg" viewBox="0 0 128.28 128.28"><defs><style>.cls-1{fill:#eebbc2;stroke-width:3px;}.cls-1,.cls-2{stroke:#131729;stroke-miterlimit:10;}.cls-2{fill:#131729;}</style></defs><circle class="cls-1" cx="64.14" cy="64.14" r="62.64"/><path class="cls-2" d="M38.56,106.78a1.06,1.06,0,0,1-1.2-1.2l5.52-80.4a1.06,1.06,0,0,1,1.2-1.2,1.49,1.49,0,0,1,1.08.48l15,13.44q2.16,1.92,3.84,3.72,1.68-1.8,3.84-3.72l15-13.44A1.49,1.49,0,0,1,83.92,24a1.06,1.06,0,0,1,1.2,1.2l5.52,80.4a1.06,1.06,0,0,1-1.2,1.2q-1.32,0-1.32-1.2L82.84,27.94,69.4,39.82a40.72,40.72,0,0,0-3.72,3.72A21.12,21.12,0,0,1,69.1,49.3a16.15,16.15,0,0,1,1,5.64A14.68,14.68,0,0,1,69,60.82,51.72,51.72,0,0,1,66.4,66q-.6,1.08-1,1.8a33.78,33.78,0,0,1,2.1,5.4,23.81,23.81,0,0,1,.9,6.84,15.31,15.31,0,0,1-1.2,6.06Q66,88.9,64,88.9t-3.24-2.82A15.31,15.31,0,0,1,59.56,80a23.81,23.81,0,0,1,.9-6.84,33.78,33.78,0,0,1,2.1-5.4q-.36-.72-1-1.8A51.72,51.72,0,0,1,59,60.82a14.68,14.68,0,0,1-1.14-5.88q0-5.76,4.44-11.4a40.72,40.72,0,0,0-3.72-3.72L45.16,27.94l-5.28,77.64Q39.88,106.78,38.56,106.78Zm25.2-42.12.24.48.24-.48q1.32-2.4,2.34-4.74a12.33,12.33,0,0,0,1-5A15.82,15.82,0,0,0,64,45.46a15.82,15.82,0,0,0-3.6,9.48,12.33,12.33,0,0,0,1,5Q62.44,62.26,63.76,64.66ZM62.08,80a13.2,13.2,0,0,0,.6,4q.6,1.92,1.32,2.28A4.59,4.59,0,0,0,65.26,84a12.1,12.1,0,0,0,.66-4,21.88,21.88,0,0,0-.54-5A28.7,28.7,0,0,0,64,70.66,28.7,28.7,0,0,0,62.62,75,21.88,21.88,0,0,0,62.08,80Z" transform="translate(0.14 0.14)"/></svg>